<!DOCTYPE svg PUBLIC "-//W3C//DTD SVG 1.1//EN" "http://www.w3.org/Graphics/SVG/1.1/DTD/svg11.dtd">
<!-- Uploaded to: SVG Repo, www.svgrepo.com, Transformed by: SVG Repo Mixer Tools -->
<svg height="800px" width="800px" version="1.1" id="Layer_1" xmlns="http://www.w3.org/2000/svg" xmlns:xlink="http://www.w3.org/1999/xlink" viewBox="0 0 495.988 495.988" xml:space="preserve" fill="#805aa0" stroke="#805aa0">
<g id="SVGRepo_bgCarrier" stroke-width="0"/>
<g id="SVGRepo_tracerCarrier" stroke-linecap="round" stroke-linejoin="round"/>
<g id="SVGRepo_iconCarrier"> <path d="M401.752,0.788l-383.2,139.2c-7.2,3.2-11.2,11.2-8,18.4l27.2,71.2l409.6-149.6l-27.2-71.2 C417.752,1.588,408.952-1.612,401.752,0.788z"/> <g> <polygon style="fill:#472e5c;" points="20.952,139.188 11.352,161.588 37.752,229.588 42.552,227.988 93.752,112.788 "/> <polygon style="fill:#472e5c;" points="96.952,207.988 169.752,181.588 220.152,67.188 148.152,92.788 "/> <polygon style="fill:#472e5c;" points="223.352,161.588 300.152,134.388 351.352,19.188 279.352,45.588 "/> <path style="fill:#472e5c;" d="M427.352,87.988l12.8-28l-19.2-50.4c-2.4-6.4-8-9.6-14.4-8.8l-50.4,113.6L427.352,87.988z"/> <path style="fill:#472e5c;" d="M486.552,481.588c0,8-9.6,14.4-17.6,14.4h-418.4c-8,0-12-6.4-12-14.4v-254.4c0-8,4-11.2,12-11.2 h418.4c8,0,17.6,3.2,17.6,11.2V481.588z"/> </g> <path style="fill:#472e5c;" d="M38.552,230.388c0-8,4-14.4,12-14.4h418.4c8,0,17.6,3.2,17.6,11.2v254.4c0,8-9.6,14.4-17.6,14.4"/> <path d="M468.952,215.988h-418.4c-8,0-12,3.2-12,11.2v76.8h448v-76.8C486.552,219.188,476.952,215.988,468.952,215.988z"/> <g> <path style="fill:#c7cfd1;" d="M381.752,351.988h-244c-2.4,0-4-1.6-4-4c0-1.6,1.6-4,4-4h244c2.4,0,4,1.6,4,4 C384.952,350.388,383.352,351.988,381.752,351.988z"/> <path style="fill:#c7cfd1;" d="M381.752,391.988h-244c-2.4,0-4-1.6-4-4c0-1.6,1.6-4,4-4h244c2.4,0,4,1.6,4,4 C384.952,390.388,383.352,391.988,381.752,391.988z"/> <path style="fill:#c7cfd1;" d="M381.752,431.988h-244c-2.4,0-4-1.6-4-4s1.6-4,4-4h244c2.4,0,4,1.6,4,4 C384.952,430.388,383.352,431.988,381.752,431.988z"/> </g> </g>
</svg>